<?xml version="1.0" encoding="UTF-8"?>
<svg width="60px" height="60px" viewBox="0 0 60 60" version="1.1" xmlns="http://www.w3.org/2000/svg" xmlns:xlink="http://www.w3.org/1999/xlink">
    <!-- Generator: Sketch 46.2 (44496) - http://www.bohemiancoding.com/sketch -->
    <title>Logo</title>
    <desc>Created with Sketch.</desc>
    <defs>
        <linearGradient x1="97.265625%" y1="97.265625%" x2="5.95580182e-15%" y2="0%" id="linearGradient-1">
            <stop stop-color="#FC3832" offset="0%"></stop>
            <stop stop-color="#F2C314" offset="100%"></stop>
        </linearGradient>
        <linearGradient x1="98.2063138%" y1="98.2063138%" x2="1.15645175e-14%" y2="-2.22044605e-14%" id="linearGradient-2">
            <stop stop-color="#1C0FD7" offset="0%"></stop>
            <stop stop-color="#9C09DB" offset="100%"></stop>
        </linearGradient>
    </defs>
    <g id="Editable" stroke="none" stroke-width="1" fill="none" fill-rule="evenodd">
        <g id="01" transform="translate(-47.000000, -49.000000)">
            <g id="Nav">
                <g id="Logo" transform="translate(45.000000, 47.000000)">
                    <g>
                        <g id="Group-9" opacity="0.900000036">
                            <rect id="Rectangle-4" fill="url(#linearGradient-1)" transform="translate(32.000000, 32.000000) rotate(20.000000) translate(-32.000000, -32.000000) " x="7.22051282" y="7.22051282" width="49.5589744" height="49.5589744" rx="8"></rect>
                            <rect id="Rectangle-4" fill="url(#linearGradient-2)" transform="translate(32.000000, 32.000000) rotate(-20.000000) translate(-32.000000, -32.000000) " x="7.22051282" y="7.22051282" width="49.5589744" height="49.5589744" rx="8"></rect>
                        </g>
                        <path d="M30.8540345,37.2082502 C30.8540345,38.5353803 30.5204022,39.7136786 29.8531278,40.7431803 C29.1858534,41.772682 28.2236388,42.5728514 26.9664551,43.1437126 C25.7092714,43.7145737 24.2345204,44 22.5421578,44 C21.1302438,44 19.9456077,43.8999788 18.988214,43.6999335 C18.0308202,43.4998881 17.0347589,43.1510338 16,42.6533599 L16,37.500998 C17.0927827,38.06698 18.2290663,38.5085369 19.4088849,38.825682 C20.5887034,39.142827 21.6717992,39.3013972 22.6582049,39.3013972 C23.5092215,39.3013972 24.1329687,39.1525852 24.5294651,38.8549568 C24.9259615,38.5573283 25.1242067,38.1743204 25.1242067,37.7059215 C25.1242067,37.4131722 25.0444251,37.1570204 24.8848595,36.9374584 C24.7252939,36.7178964 24.4690256,36.4958982 24.1160471,36.2714571 C23.7630686,36.047016 22.8226127,35.5883823 21.294651,34.8955422 C19.9117489,34.2612521 18.8745879,33.6464878 18.1831369,33.0512309 C17.4916859,32.455974 16.9791494,31.7729025 16.6455122,31.001996 C16.311875,30.2310895 16.1450589,29.3187012 16.1450589,28.2648037 C16.1450589,26.2936251 16.8558406,24.7567143 18.2774252,23.6540253 C19.6990098,22.5513362 21.6524506,22 24.137806,22 C26.3330421,22 28.5717625,22.5123036 30.8540345,23.5369261 L29.0988214,28.0013307 C27.1163394,27.0840495 25.4046612,26.6254158 23.9637353,26.6254158 C23.2190957,26.6254158 22.6775478,26.757151 22.3390752,27.0206254 C22.0006027,27.2840998 21.831369,27.6109983 21.831369,28.0013307 C21.831369,28.420938 22.0465376,28.7966273 22.4768812,29.1284098 C22.9072249,29.4601924 24.0749376,30.0651985 25.9800544,30.9434464 C27.8078061,31.7729028 29.077059,32.6633352 29.7878513,33.6147705 C30.4986436,34.5662057 30.8540345,35.7640203 30.8540345,37.2082502 Z M48,37.2082502 C48,38.5353803 47.6663678,39.7136786 46.9990934,40.7431803 C46.331819,41.772682 45.3696044,42.5728514 44.1124207,43.1437126 C42.855237,43.7145737 41.3804859,44 39.6881233,44 C38.2762093,44 37.0915732,43.8999788 36.1341795,43.6999335 C35.1767858,43.4998881 34.1807244,43.1510338 33.1459655,42.6533599 L33.1459655,37.500998 C34.2387483,38.06698 35.3750319,38.5085369 36.5548504,38.825682 C37.7346689,39.142827 38.8177648,39.3013972 39.8041704,39.3013972 C40.6551871,39.3013972 41.2789343,39.1525852 41.6754306,38.8549568 C42.071927,38.5573283 42.2701723,38.1743204 42.2701723,37.7059215 C42.2701723,37.4131722 42.1903906,37.1570204 42.030825,36.9374584 C41.8712594,36.7178964 41.6149912,36.4958982 41.2620127,36.2714571 C40.9090342,36.047016 39.9685782,35.5883823 38.4406165,34.8955422 C37.0577145,34.2612521 36.0205535,33.6464878 35.3291024,33.0512309 C34.6376514,32.455974 34.125115,31.7729025 33.7914778,31.001996 C33.4578406,30.2310895 33.2910245,29.3187012 33.2910245,28.2648037 C33.2910245,26.2936251 34.0018061,24.7567143 35.4233908,23.6540253 C36.8449754,22.5513362 38.7984161,22 41.2837715,22 C43.4790077,22 45.7177281,22.5123036 48,23.5369261 L46.2447869,28.0013307 C44.262305,27.0840495 42.5506267,26.6254158 41.1097008,26.6254158 C40.3650613,26.6254158 39.8235133,26.757151 39.4850408,27.0206254 C39.1465683,27.2840998 38.9773345,27.6109983 38.9773345,28.0013307 C38.9773345,28.420938 39.1925031,28.7966273 39.6228468,29.1284098 C40.0531904,29.4601924 41.2209031,30.0651985 43.1260199,30.9434464 C44.9537716,31.7729028 46.2230246,32.6633352 46.9338169,33.6147705 C47.6446092,34.5662057 48,35.7640203 48,37.2082502 Z" id="SS" fill="#FFFFFF"></path>
                    </g>
                </g>
            </g>
        </g>
    </g>
</svg>